<svg xmlns="http://www.w3.org/2000/svg" width="43.73" height="43.531" viewBox="0 0 43.73 43.531">
  <g id="그룹_16556" data-name="그룹 16556" transform="translate(-1267.27 -184.141)">
    <g id="사각형_16881" data-name="사각형 16881" transform="translate(1267.27 189.547)" fill="#666" stroke="#fff" stroke-width="1">
      <rect width="10.398" height="10.398" rx="1" stroke="none"/>
      <rect x="0.5" y="0.5" width="9.398" height="9.398" rx="0.5" fill="none"/>
    </g>
    <g id="패스_1934" data-name="패스 1934" transform="translate(1284.433 187.092) rotate(20)" fill="#666">
      <path d="M 9.099882125854492 9.897703170776367 L 9.099442481994629 9.897703170776367 L 1.304242491722107 9.893612861633301 C 0.8632725477218628 9.893383026123047 0.5043225288391113 9.534442901611328 0.5040925145149231 9.093473434448242 L 0.5000025629997253 1.298263072967529 C 0.49989253282547 1.084972977638245 0.5828025341033936 0.8844929933547974 0.7334725260734558 0.7337530255317688 C 0.8841325640678406 0.5830129981040955 1.084552526473999 0.5000030398368835 1.297822594642639 0.5000030398368835 L 9.093472480773926 0.5040929913520813 C 9.534442901611328 0.5043230056762695 9.89338207244873 0.8632630109786987 9.893612861633301 1.304233074188232 L 9.897702217102051 9.099443435668945 C 9.897812843322754 9.312732696533203 9.814902305603027 9.513213157653809 9.66423225402832 9.663952827453613 C 9.513572692871094 9.814693450927734 9.313152313232422 9.897703170776367 9.099882125854492 9.897703170776367 Z" stroke="none"/>
      <path d="M 1.297822952270508 1.000002861022949 C 1.195722579956055 1.000002861022949 1.126882553100586 1.047432899475098 1.087112426757812 1.087223052978516 C 1.047342300415039 1.127013206481934 0.9999523162841797 1.195873260498047 1.000002861022949 1.298003196716309 L 1.004092216491699 9.093202590942383 C 1.004182815551758 9.258763313293457 1.138942718505859 9.393523216247559 1.304502487182617 9.393612861633301 L 9.099882125854492 9.397703170776367 C 9.201982498168945 9.397703170776367 9.270822525024414 9.350273132324219 9.310592651367188 9.310482978820801 C 9.350362777709961 9.270692825317383 9.39775276184082 9.20183277130127 9.397702217102051 9.099702835083008 L 9.393612861633301 1.304503440856934 C 9.393522262573242 1.138942718505859 9.258772850036621 1.004182815551758 9.093212127685547 1.004093170166016 L 1.29852294921875 1.000002861022949 L 1.297822952270508 1.000002861022949 M 1.297819137573242 2.86102294921875e-06 C 1.29808235168457 2.86102294921875e-06 1.298259735107422 2.86102294921875e-06 1.29852294921875 2.86102294921875e-06 L 9.093732833862305 0.004093170166015625 C 9.811252593994141 0.00446319580078125 10.39323234558105 0.5864429473876953 10.3936128616333 1.303973197937012 L 10.39770221710205 9.099183082580566 C 10.3980827331543 9.816450119018555 9.817052841186523 10.39770317077637 9.099885940551758 10.39770317077637 C 9.09962272644043 10.39770317077637 9.099445343017578 10.39770317077637 9.09918212890625 10.39770317077637 L 1.303982734680176 10.3936128616333 C 0.5864524841308594 10.39324283599854 0.004472732543945312 9.811263084411621 0.004092216491699219 9.093732833862305 L 2.86102294921875e-06 1.29852294921875 C -0.000377655029296875 0.5812559127807617 0.5806522369384766 2.86102294921875e-06 1.297819137573242 2.86102294921875e-06 Z" stroke="none" fill="#fff"/>
    </g>
    <g id="패스_1933" data-name="패스 1933" transform="translate(1301.995 184.141) rotate(30)" fill="#666">
      <path d="M 9.100542068481445 9.897703170776367 L 9.09996223449707 9.897703170776367 L 1.305802583694458 9.892192840576172 C 0.8648325204849243 9.89188289642334 0.5058225393295288 9.532873153686523 0.505512535572052 9.091893196105957 L 0.5000025629997253 1.297752976417542 C 0.4998525381088257 1.084573030471802 0.5826725363731384 0.8842230439186096 0.7332025170326233 0.7335830330848694 C 0.8837325572967529 0.5829530358314514 1.084012508392334 0.5000030398368835 1.297162532806396 0.5000030398368835 L 9.091902732849121 0.5055130124092102 C 9.532872200012207 0.505823016166687 9.89188289642334 0.8648329973220825 9.892192840576172 1.305813074111938 L 9.897702217102051 9.099952697753906 C 9.897852897644043 9.313133239746094 9.815032958984375 9.513483047485352 9.664502143859863 9.664122581481934 C 9.513972282409668 9.814752578735352 9.313692092895508 9.897703170776367 9.100542068481445 9.897703170776367 Z" stroke="none"/>
      <path d="M 1.297163009643555 1.000002861022949 C 1.195232391357422 1.000002861022949 1.126542091369629 1.047323226928711 1.086872100830078 1.08702278137207 C 1.047202110290527 1.126723289489746 0.9999322891235352 1.195443153381348 1.000002861022949 1.297392845153809 L 1.005512237548828 9.091543197631836 C 1.005632400512695 9.257203102111816 1.14049243927002 9.392072677612305 1.30616283416748 9.392192840576172 L 9.100542068481445 9.397703170776367 C 9.202472686767578 9.397703170776367 9.271162033081055 9.350382804870605 9.310832977294922 9.310683250427246 C 9.350502014160156 9.27098274230957 9.397772789001465 9.202262878417969 9.397702217102051 9.100313186645508 L 9.392192840576172 1.30616283416748 C 9.392072677612305 1.1405029296875 9.25721263885498 1.005633354187012 9.09154224395752 1.005513191223145 L 1.298102378845215 1.000002861022949 L 1.297163009643555 1.000002861022949 M 1.297159194946289 2.86102294921875e-06 C 1.29750919342041 2.86102294921875e-06 1.297752380371094 2.86102294921875e-06 1.298102378845215 2.86102294921875e-06 L 9.092252731323242 0.005513191223144531 C 9.809682846069336 0.006012916564941406 10.39168262481689 0.5880231857299805 10.39219284057617 1.305453300476074 L 10.39770221710205 9.099602699279785 C 10.39821243286133 9.816682815551758 9.817492485046387 10.39770317077637 9.100545883178711 10.39770317077637 C 9.10019588470459 10.39770317077637 9.099952697753906 10.39770317077637 9.099602699279785 10.39770317077637 L 1.305452346801758 10.39219284057617 C 0.5880222320556641 10.39169311523438 0.006022453308105469 9.809682846069336 0.005512237548828125 9.092252731323242 L 2.86102294921875e-06 1.298103332519531 C -0.000507354736328125 0.5810232162475586 0.5802125930786133 2.86102294921875e-06 1.297159194946289 2.86102294921875e-06 Z" stroke="none" fill="#fff"/>
    </g>
    <g id="사각형_16881-2" data-name="사각형 16881" transform="translate(1267.27 203.411)" fill="#666" stroke="#fff" stroke-width="1">
      <rect width="10.398" height="10.398" rx="1" stroke="none"/>
      <rect x="0.5" y="0.5" width="9.398" height="9.398" rx="0.5" fill="none"/>
    </g>
    <g id="사각형_16881-3" data-name="사각형 16881" transform="translate(1281.134 203.411)" fill="#666" stroke="#fff" stroke-width="1">
      <rect width="10.398" height="10.398" rx="1" stroke="none"/>
      <rect x="0.5" y="0.5" width="9.398" height="9.398" rx="0.5" fill="none"/>
    </g>
    <g id="패스_1935" data-name="패스 1935" transform="translate(1297.228 201.609) rotate(10)" fill="#666">
      <path d="M 8.830789566040039 9.897703170776367 L 8.830569267272949 9.897703170776367 L 1.263749480247498 9.895533561706543 C 0.8438994884490967 9.895413398742676 0.502239465713501 9.536563873291016 0.5021194815635681 9.095593452453613 L 0.499999463558197 1.298943519592285 C 0.4999394714832306 1.082683444023132 0.5808694958686829 0.8801434636116028 0.72786945104599 0.7286434769630432 C 0.870929479598999 0.5812035202980042 1.060059428215027 0.5000035166740417 1.260429501533508 0.5000035166740417 L 8.827469825744629 0.5021734833717346 C 9.247319221496582 0.5022934675216675 9.588979721069336 0.8611434698104858 9.589099884033203 1.30211353302002 L 9.591219902038574 9.098763465881348 C 9.591279029846191 9.315023422241211 9.510349273681641 9.517563819885254 9.363349914550781 9.669063568115234 C 9.22028923034668 9.816503524780273 9.031159400939941 9.897703170776367 8.830789566040039 9.897703170776367 Z" stroke="none"/>
      <path d="M 1.260429382324219 1.000003814697266 C 1.178459167480469 1.000003814697266 1.120719909667969 1.041783332824707 1.086709022521973 1.076823234558105 C 1.054319381713867 1.110213279724121 0.999969482421875 1.183453559875488 0.9999990463256836 1.298813819885254 L 1.002119064331055 9.095463752746582 C 1.002159118652344 9.260883331298828 1.119599342346191 9.395493507385254 1.263899803161621 9.395533561706543 L 8.830789566040039 9.397703170776367 C 8.912759780883789 9.397703170776367 8.970499038696289 9.355923652648926 9.004508972167969 9.320883750915527 C 9.036899566650391 9.287493705749512 9.091249465942383 9.214253425598145 9.091219902038574 9.098893165588379 L 9.089099884033203 1.302243232727051 C 9.089059829711914 1.136823654174805 8.971619606018066 1.002213478088379 8.827319145202637 1.00217342376709 L 1.26078987121582 1.000003814697266 L 1.260429382324219 1.000003814697266 M 1.260430335998535 3.814697265625e-06 C 1.260558128356934 3.814697265625e-06 1.260662078857422 3.814697265625e-06 1.26078987121582 3.814697265625e-06 L 8.827609062194824 0.002173423767089844 C 9.52411937713623 0.002373695373535156 10.08890914916992 0.5843133926391602 10.0890998840332 1.301983833312988 L 10.09121990203857 9.098623275756836 C 10.09140968322754 9.816162109375 9.527122497558594 10.39770317077637 8.830788612365723 10.39770317077637 C 8.830660820007324 10.39770317077637 8.830556869506836 10.39770317077637 8.830429077148438 10.39770317077637 L 1.263609886169434 10.39553356170654 C 0.5670995712280273 10.3953332901001 0.002309799194335938 9.813393592834473 0.002119064331054688 9.095723152160645 L -9.5367431640625e-07 1.299083709716797 C -0.00019073486328125 0.5815448760986328 0.5640964508056641 3.814697265625e-06 1.260430335998535 3.814697265625e-06 Z" stroke="none" fill="#fff"/>
    </g>
    <g id="사각형_16881-4" data-name="사각형 16881" transform="translate(1267.27 217.274)" fill="#666" stroke="#fff" stroke-width="1">
      <rect width="10.398" height="10.398" rx="1" stroke="none"/>
      <rect x="0.5" y="0.5" width="9.398" height="9.398" rx="0.5" fill="none"/>
    </g>
    <g id="그룹_9864" data-name="그룹 9864" transform="translate(1281.134 217.274)">
      <g id="사각형_16881-5" data-name="사각형 16881" transform="translate(0 0)" fill="#666" stroke="#fff" stroke-width="1">
        <rect width="10.398" height="10.398" rx="1" stroke="none"/>
        <rect x="0.5" y="0.5" width="9.398" height="9.398" rx="0.5" fill="none"/>
      </g>
    </g>
    <g id="사각형_16881-6" data-name="사각형 16881" transform="translate(1294.997 217.274)" fill="#666" stroke="#fff" stroke-width="1">
      <rect width="10.398" height="10.398" rx="1" stroke="none"/>
      <rect x="0.5" y="0.5" width="9.398" height="9.398" rx="0.5" fill="none"/>
    </g>
  </g>
</svg>
